<svg width="27" height="23" viewBox="-1 0 28 22" fill="none" xmlns="http://www.w3.org/2000/svg">
<path d="M3.14679 18.8745L3.69352 17.978C3.01314 16.924 2.53931 15.761 2.27202 14.5374L0.862674 14.5374L0.862674 9.69163L2.34492 9.69163C2.49071 9.11014 2.66081 8.51652 2.9038 7.94714C3.14679 7.37776 3.43838 6.8326 3.75426 6.31168L2.69725 5.25771L6.13557 1.8293L7.13183 2.82269C8.18884 2.14428 9.3552 1.65969 10.5823 1.40529L10.5823 1.34893e-06L15.4421 9.24067e-07L15.4421 1.47797C16.0253 1.62335 16.6085 1.79295 17.1795 2.03524C17.7627 2.27754 18.3094 2.56828 18.8318 2.88326L19.8888 1.8293L23.3272 5.25771L22.3187 6.26322C22.9991 7.31718 23.473 8.46806 23.7402 9.69163L25.1617 9.69163L25.1617 14.5374L23.6673 14.5374C23.5216 15.1189 23.3515 15.7126 23.1085 16.2819C22.8655 16.8634 22.5739 17.3965 22.258 17.9174L22.8655 18.8623L26.0122 18.8623L26.0122 22.0121L18.4589 22.0121L17.2561 20.8007L17.2561 18.0569C18.8318 17.1232 20.3141 14.6344 20.3141 12.0297C20.3141 7.9956 17.0337 4.72467 12.9879 4.72467C8.94211 4.72467 5.66174 7.9956 5.66174 12.0297C5.66174 14.5374 7.13183 17.1232 8.75619 18.0933L8.76834 20.8007L7.55339 22.0121L5.91278e-05 22.0121L5.88535e-05 18.8745L3.14679 18.8745ZM10.3758 14.6344C11.8216 16.076 14.1664 16.076 15.6122 14.6344C17.058 13.1927 17.058 10.8546 15.6122 9.413C14.1664 7.97137 11.8216 7.97137 10.3758 9.413C8.92996 10.8546 8.92997 13.1927 10.3758 14.6344Z" fill="black"/>
</svg>
