<svg width="141" height="14" viewBox="0 0 141 14" fill="none" xmlns="http://www.w3.org/2000/svg">
<path d="M6.53448 13.162C5.89048 13.162 5.30248 13.078 4.77048 12.91C4.24782 12.742 3.82782 12.504 3.51048 12.196C3.19315 11.8973 3.03448 11.538 3.03448 11.118C3.03448 10.754 3.19782 10.3807 3.52448 9.998C3.43115 9.83 3.35648 9.69 3.30048 9.578C3.24448 9.45667 3.21648 9.32133 3.21648 9.172C3.21648 8.948 3.27248 8.63067 3.38448 8.22C3.50582 7.8 3.65982 7.34267 3.84648 6.848C4.04248 6.344 4.25715 5.84933 4.49048 5.364C4.73315 4.87867 4.97582 4.45867 5.21848 4.104C5.54515 3.628 5.81115 3.27333 6.01648 3.04C6.23115 2.79733 6.43648 2.63867 6.63248 2.564C6.83782 2.48 7.08982 2.438 7.38848 2.438C7.74315 2.438 7.99515 2.45667 8.14449 2.494V2.76C8.14449 3.6 7.92515 4.27667 7.48648 4.79H7.38848C6.99648 4.79 6.70715 4.89733 6.52048 5.112C6.42715 5.224 6.30582 5.42 6.15648 5.7C6.00715 5.98 5.85782 6.28333 5.70848 6.61C5.55915 6.93667 5.43315 7.23533 5.33048 7.506C5.23715 7.77667 5.19048 7.95867 5.19048 8.052C5.19048 8.32267 5.30715 8.56067 5.54048 8.766C5.40982 9.51267 4.94782 10.152 4.15448 10.684L3.81848 10.404C3.65048 10.5813 3.56648 10.7913 3.56648 11.034C3.56648 11.5007 3.83248 11.8787 4.36448 12.168C4.89648 12.4573 5.61982 12.602 6.53448 12.602C7.51448 12.602 8.42915 12.3547 9.27848 11.86C10.1372 11.356 10.8325 10.67 11.3645 9.802C11.6352 9.36333 11.8312 8.91067 11.9525 8.444C12.0832 7.968 12.1485 7.48267 12.1485 6.988C12.1485 6.316 12.0365 5.672 11.8125 5.056C11.5885 4.44 11.2665 3.88 10.8465 3.376C10.4265 2.86267 9.92249 2.44267 9.33448 2.116C8.45715 1.62133 7.52382 1.374 6.53448 1.374C5.86248 1.374 5.21382 1.49533 4.58848 1.738C3.96315 1.97133 3.39848 2.30267 2.89448 2.732C2.39048 3.16133 1.97048 3.66533 1.63448 4.244C1.13982 5.10267 0.892484 6.01733 0.892484 6.988C0.892484 7.70667 1.01382 8.36933 1.25648 8.976C1.50848 9.57333 1.90048 10.194 2.43248 10.838C2.39515 10.8473 2.35315 10.8613 2.30648 10.88C2.25982 10.8987 2.20382 10.908 2.13848 10.908C1.95182 10.908 1.75582 10.7913 1.55048 10.558C1.34515 10.3153 1.14915 9.998 0.962484 9.606C0.785151 9.214 0.640484 8.78933 0.528484 8.332C0.416484 7.87467 0.360484 7.42667 0.360484 6.988C0.360484 6.26 0.486484 5.56467 0.738484 4.902C0.990484 4.23 1.34982 3.61867 1.81648 3.068C2.28315 2.51733 2.83382 2.05533 3.46848 1.682C4.42048 1.122 5.44248 0.841999 6.53448 0.841999C7.26248 0.841999 7.96248 0.967999 8.63448 1.22C9.31582 1.46267 9.93182 1.81733 10.4825 2.284C11.0425 2.74133 11.4998 3.28733 11.8545 3.922C12.4052 4.89267 12.6805 5.91467 12.6805 6.988C12.6805 7.70667 12.5545 8.40667 12.3025 9.088C12.0505 9.76933 11.6912 10.39 11.2245 10.95C10.7578 11.51 10.2072 11.972 9.57249 12.336C8.61115 12.8867 7.59848 13.162 6.53448 13.162ZM8.46649 5.126C8.41982 5.126 8.16315 5.056 7.69649 4.916C7.96715 4.58 8.14915 4.258 8.24248 3.95C8.34515 3.63267 8.39648 3.264 8.39648 2.844V2.592L8.95648 2.872C9.06848 2.928 9.14782 2.97933 9.19448 3.026C9.24115 3.07267 9.26448 3.17067 9.26448 3.32C9.26448 3.58133 9.24582 3.824 9.20848 4.048C9.17115 4.26267 9.10582 4.45867 9.01248 4.636C8.84448 4.96267 8.66248 5.126 8.46649 5.126ZM5.23248 11.216C5.22315 11.216 5.21382 11.216 5.20448 11.216C5.19515 11.2067 5.18582 11.202 5.17648 11.202C5.17648 11.202 4.91048 11.0807 4.37848 10.838C5.21848 10.2873 5.68982 9.62933 5.79248 8.864L6.25448 9.214C6.41315 9.326 6.49248 9.452 6.49248 9.592C6.49248 9.68533 6.44582 9.82533 6.35248 10.012C6.25915 10.1893 6.14248 10.3713 6.00248 10.558C5.86248 10.7353 5.72248 10.8893 5.58248 11.02C5.44248 11.1507 5.32582 11.216 5.23248 11.216ZM23.0437 4.37H21.4617V7.086H18.7457V8.598H21.4617V11.314H23.0437V8.598H25.7597V7.086H23.0437V4.37ZM27.3285 2.2V3.712H32.2705L28.1125 12H29.9045L34.1605 3.362V2.2H27.3285ZM40.9591 6.638C40.3711 6.638 39.9371 7.058 39.9371 7.632C39.9371 8.192 40.3711 8.612 40.9591 8.612C41.5471 8.612 41.9951 8.192 41.9951 7.632C41.9951 7.058 41.5471 6.638 40.9591 6.638ZM49.549 6.848C50.361 6.498 50.823 5.728 50.823 4.832C50.823 3.194 49.381 2.032 47.421 2.032C45.587 2.032 44.103 2.97 43.823 5H45.419C45.685 3.908 46.385 3.53 47.379 3.53C48.555 3.53 49.227 4.146 49.227 5.028C49.227 5.882 48.583 6.274 47.393 6.274H46.343V7.674H47.673C49.045 7.674 49.535 8.248 49.535 9.074C49.535 10.04 48.835 10.67 47.533 10.67C46.399 10.67 45.531 10.222 45.293 9.074H43.697C43.921 11.16 45.573 12.168 47.547 12.168C49.675 12.168 51.131 11.062 51.131 9.214C51.131 8.066 50.543 7.212 49.549 6.848ZM60.193 8.262H58.779V2.2H56.427L52.143 8.262V9.76L57.197 9.746V12H58.779V9.746H60.193V8.262ZM53.865 8.262L57.071 3.67H57.197V8.262H53.865ZM63.7734 10.488L63.8014 10.474L65.3414 9.144C67.3434 7.394 68.3794 6.512 68.3794 5.028C68.3794 3.376 67.0774 2.032 64.9914 2.032C62.9614 2.032 61.4914 3.306 61.2674 5.35H62.8634C63.0734 4.23 63.7314 3.544 64.9214 3.544C66.1254 3.544 66.7834 4.244 66.7834 5.098C66.7834 5.966 66.2234 6.456 64.0254 8.374L61.1834 10.866V12H68.6174V10.488H63.7734ZM71.3653 6.638C70.7773 6.638 70.3433 7.058 70.3433 7.632C70.3433 8.192 70.7773 8.612 71.3653 8.612C71.9533 8.612 72.4013 8.192 72.4013 7.632C72.4013 7.058 71.9533 6.638 71.3653 6.638ZM80.8906 10.488L80.9186 10.474L82.4586 9.144C84.4606 7.394 85.4966 6.512 85.4966 5.028C85.4966 3.376 84.1946 2.032 82.1086 2.032C80.0786 2.032 78.6086 3.306 78.3846 5.35H79.9806C80.1906 4.23 80.8486 3.544 82.0386 3.544C83.2426 3.544 83.9006 4.244 83.9006 5.098C83.9006 5.966 83.3406 6.456 81.1426 8.374L78.3006 10.866V12H85.7346V10.488H80.8906ZM94.7965 8.262H93.3825V2.2H91.0305L86.7465 8.262V9.76L91.8005 9.746V12H93.3825V9.746H94.7965V8.262ZM88.4685 8.262L91.6745 3.67H91.8005V8.262H88.4685ZM101.639 6.848C102.451 6.498 102.913 5.728 102.913 4.832C102.913 3.194 101.471 2.032 99.5109 2.032C97.6769 2.032 96.1929 2.97 95.9129 5H97.5089C97.7749 3.908 98.4749 3.53 99.4689 3.53C100.645 3.53 101.317 4.146 101.317 5.028C101.317 5.882 100.673 6.274 99.4829 6.274H98.4329V7.674H99.7629C101.135 7.674 101.625 8.248 101.625 9.074C101.625 10.04 100.925 10.67 99.6229 10.67C98.4889 10.67 97.6209 10.222 97.3829 9.074H95.7869C96.0109 11.16 97.6629 12.168 99.6369 12.168C101.765 12.168 103.221 11.062 103.221 9.214C103.221 8.066 102.633 7.212 101.639 6.848ZM111.524 2.2L108.43 3.404V4.958L110.656 4.048V12H112.238V2.2H111.524ZM116.911 2.2L113.817 3.404V4.958L116.043 4.048V12H117.625V2.2H116.911ZM127.769 2.032C125.221 2.032 123.695 3.922 123.695 7.1C123.695 10.278 125.221 12.168 127.769 12.168C130.345 12.168 131.857 10.25 131.857 7.1C131.857 3.95 130.345 2.032 127.769 2.032ZM127.769 10.656C126.215 10.656 125.291 9.564 125.291 7.1C125.291 4.636 126.215 3.544 127.769 3.544C129.337 3.544 130.261 4.636 130.261 7.1C130.261 9.564 129.337 10.656 127.769 10.656ZM135.578 10.488L135.606 10.474L137.146 9.144C139.148 7.394 140.184 6.512 140.184 5.028C140.184 3.376 138.882 2.032 136.796 2.032C134.766 2.032 133.296 3.306 133.072 5.35H134.668C134.878 4.23 135.536 3.544 136.726 3.544C137.93 3.544 138.588 4.244 138.588 5.098C138.588 5.966 138.028 6.456 135.83 8.374L132.988 10.866V12H140.422V10.488H135.578Z" fill="black"/>
</svg>
