<svg id="Layer_1" data-name="Layer 1" xmlns="http://www.w3.org/2000/svg" viewBox="0 0 90 90"><defs><style>.cls-1{fill:#707070;}.cls-2{fill:#c4c4c4;}</style></defs><title>uer_icons31</title><path class="cls-1" d="M56.15,65.88C67.15,65.42,75,57,75,45.54S67.15,25.66,56.15,25.2V15.41C73,15.88,85.6,28.67,85.6,45.54S73,75.2,56.15,75.66Z"/><path class="cls-2" d="M54.45,75.66C37.59,75.2,25,62.4,25,45.54S37.59,15.88,54.45,15.41V25.2c-11,.46-18.9,8.87-18.9,20.34s7.89,19.88,18.9,20.34Z"/><path class="cls-1" d="M8.37,76V68.25l18-15.68C39.44,41,42.21,38.41,42.21,33.42c0-4.56-3.28-9.16-10.6-9.16-6.36,0-10.23,3.35-11.51,10h-11C10.35,21.93,19.3,14,32.15,14c12.42,0,21.09,7.71,21.09,18.75,0,9-6,14.24-16.83,23.71L28,63.82l-.07,0v0l0,0,0,0,.44,1.86h26.2V76Z"/></svg>