<svg id="Layer_1" data-name="Layer 1" xmlns="http://www.w3.org/2000/svg" viewBox="0 0 90 90"><defs><style>.cls-1{fill:#707070;}.cls-2{fill:#c4c4c4;}</style></defs><title>uer_icons31</title><path class="cls-1" d="M50.2,41.83v8c4.32,1.19,6.3,2.49,6.3,5.64,0,3.46-2.26,5.75-6.3,6.61v7.35c7.34-1.07,14.15-5.41,14.15-14.3C64.35,47.2,59.38,44.22,50.2,41.83Z"/><path class="cls-1" d="M40.21,47.51V39.44c-4-1.17-5.47-2.44-5.47-4.95,0-3.17,1.9-5.48,5.47-6.49V20.57C32.85,21.91,27,26.63,27,34.69,27,42.54,32.55,45.51,40.21,47.51Z"/><path class="cls-2" d="M50.2,28.26A8.91,8.91,0,0,1,55.88,34h7.85C62.6,27.68,58.47,22.32,50.2,20.7Z"/><path class="cls-2" d="M40.21,61.65c-3.65-1.23-5.71-3.77-6.71-7.57H25.65C26.72,61,31,67.21,40.21,69.13Z"/><path class="cls-2" d="M49.16,12.5H41.42v65h7.74Z"/></svg>