<svg id="Layer_1" data-name="Layer 1" xmlns="http://www.w3.org/2000/svg" viewBox="0 0 90 90"><defs><style>.cls-1{fill:#707070;}.cls-2{fill:#c4c4c4;}</style></defs><title>uer_icons31</title><path class="cls-1" d="M15.34,77.42l-2.82-2.79q1.59-2.47,3.2-4.95,2.08-3.24,4.16-6.48a1.21,1.21,0,0,1,.88-.65c1-.15,1.95-.43,2.93-.55a3.32,3.32,0,0,0,1.94-1.11Q35.74,50.75,45.87,40.65l4.4-4.4.36-.38c-1.05-1-2.07-2.09-3.11-3.11a1.72,1.72,0,0,1-.69-1.38,1.12,1.12,0,0,1,.73-1.07c.55-.21,1.08-.49,1.64-.66a6.32,6.32,0,0,0,2.65-1.84c2.19-2.21,4.4-4.4,6.59-6.59,1.74-1.74,3.46-3.49,5.22-5.21a19.73,19.73,0,0,1,2.77-2.49,6.13,6.13,0,0,1,6.84,0,8.2,8.2,0,0,1,4,5,6,6,0,0,1-1.65,6.19c-4.28,4.32-8.6,8.61-12.91,12.91-.36.35-.71.71-1.07,1a3.72,3.72,0,0,0-1.08,1.66c-.22.67-.55,1.3-.83,2a1.23,1.23,0,0,1-2.08.44c-1.13-1.07-2.22-2.18-3.33-3.27L54,39.28c-.43.46-.84.94-1.28,1.38q-12,12-24,24.06A2.21,2.21,0,0,0,28.05,66c-.21,1.11-.43,2.21-.67,3.32a1.1,1.1,0,0,1-.41.62c-3.49,2.27-7,4.51-10.48,6.77ZM58.71,36.7a4.85,4.85,0,0,0,.78-.5q1.86-1.83,3.71-3.69L73.48,22.23c.52-.52.55-1,.09-1.45s-.92-.48-1.48.07l-4,4c-3.34,3.33-6.69,6.65-10,10a1.1,1.1,0,0,0-.26,1C58,36.13,58.38,36.38,58.71,36.7Zm11-19.63a5.05,5.05,0,0,0-.78-.81c-.42-.29-.81-.05-1.12.26l-5.18,5.15-5.4,5.41c-1.15,1.15-2.31,2.29-3.45,3.46a.83.83,0,0,0,0,1.35.88.88,0,0,0,1.41,0c.17-.15.33-.32.49-.48L63,24.08c2-2,4.1-4.09,6.14-6.15A4.63,4.63,0,0,0,69.7,17.07Z"/><path class="cls-2" d="M21.63,13.28c1.18-.21,2.24-.51,3.31-.59a18.82,18.82,0,0,1,9.52,1.71,13.7,13.7,0,0,1,7.76,9.75A13.22,13.22,0,0,1,42.51,28c-.11,1.92-.11,3.84-.18,5.76a1,1,0,0,0,.39.83c1.21,1,2.4,2.08,3.58,3.1l-8.9,8.9c-1-1.14-2-2.3-3-3.48a1.85,1.85,0,0,0-1.61-.82,67.54,67.54,0,0,1-7,0C19.53,41.88,14.55,38.2,13,31.76a19.09,19.09,0,0,1,0-9.11,5.51,5.51,0,0,1,.18-.53c.92.95,1.77,1.86,2.65,2.74C18,27,20.11,29.1,22.29,31.15c1.46,1.38,2.94,1.28,4.35-.13,1.22-1.22,2.4-2.48,3.66-3.66,1.95-1.83,1.6-3.46-.1-5.18-2.79-2.83-5.54-5.7-8.31-8.54Z"/><path class="cls-2" d="M52.73,43.28l6.91,6c3.67,3.21,7.35,6.4,11,9.62A48.28,48.28,0,0,1,75,63a8.52,8.52,0,0,1,1.1,10.14,8.42,8.42,0,0,1-7.63,4.4A9.31,9.31,0,0,1,61.44,74c-2.42-2.7-4.79-5.45-7.17-8.18-2.15-2.45-4.29-4.92-6.44-7.37l-4.32-4.94L43,53ZM73,68.29a4.94,4.94,0,0,0-4.88-4.88,4.87,4.87,0,0,0,0,9.74A4.94,4.94,0,0,0,73,68.29Z"/></svg>