<svg id="Layer_1" data-name="Layer 1" xmlns="http://www.w3.org/2000/svg" xmlns:xlink="http://www.w3.org/1999/xlink" viewBox="0 0 90 90"><defs><style>.cls-1{fill:none;}.cls-2{clip-path:url(#clip-path);}.cls-3{fill:#c4c4c4;}.cls-4{fill:#707070;}</style><clipPath id="clip-path"><rect class="cls-1" x="6.93" y="12.51" width="74.77" height="64.98"/></clipPath></defs><title>uer_icons31</title><g class="cls-2"><path class="cls-3" d="M81.7,42.11c-.41-2-.71-4-1.25-5.87A31.93,31.93,0,0,0,52.76,12.71c-10-1.07-18.56,2.23-25.93,9.13L32,26.67a25.05,25.05,0,0,1,34.66-.13,25.54,25.54,0,0,1,3.85,32.17,25,25,0,0,1-30.47,9.73C28.81,63.92,23.77,52.15,24.64,44.93h9.88L20.6,31.07,6.93,44.87H17.12a37.51,37.51,0,0,0,2.66,12.77,32.1,32.1,0,0,0,61.31-6.87c.18-1.09.4-2.17.61-3.26Z"/><path class="cls-4" d="M63.76,53.44,61.2,57.77c-4.93-3-9.74-5.82-14.54-8.74A1.65,1.65,0,0,1,46,47.86c0-5.66,0-18,0-23.78h5.5V45.89C54.55,47.67,59.71,51,63.76,53.44Z"/></g></svg>