<svg width="35" height="33" viewBox="0 0 35 33" fill="none" xmlns="http://www.w3.org/2000/svg">
<path d="M27.0505 25.165C24.7607 25.3 22.4505 25.42 20.1812 25.575C18.0805 25.715 15.985 25.915 13.8843 26.075C12.8834 26.1834 11.8737 25.9711 11.0067 25.47C10.5315 25.1804 10.1601 24.7534 9.94394 24.2482C9.72782 23.7429 9.67769 23.1844 9.80051 22.65C9.91207 22.0051 10.1295 21.382 10.4445 20.805C10.4945 20.6969 10.5071 20.5757 10.4803 20.46C9.34562 16.7467 8.21606 13.0317 7.09162 9.315L5.26695 3.285C5.26255 3.25008 5.25109 3.21636 5.23323 3.18582C5.21536 3.15527 5.19146 3.12852 5.16291 3.10711C5.13437 3.0857 5.10175 3.07006 5.06696 3.06112C5.03217 3.05217 4.99591 3.05009 4.96029 3.05501C3.93806 3.05501 2.95162 3.05501 1.94473 3.05501C1.67391 3.06697 1.40534 3.00205 1.17137 2.8681C0.937403 2.73414 0.748027 2.53685 0.626064 2.30001C0.502246 2.0839 0.442838 1.83817 0.454583 1.59071C0.466328 1.34324 0.548755 1.10395 0.692509 0.900005C0.807909 0.704465 0.974129 0.542266 1.1743 0.429865C1.37448 0.317464 1.60148 0.258863 1.83229 0.260006C3.33495 0.260006 4.83251 0.260006 6.33006 0.260006C6.62038 0.254496 6.90427 0.343986 7.13668 0.514278C7.36909 0.68457 7.53671 0.925909 7.61295 1.2C7.88895 2.03 8.12406 2.87 8.38473 3.7C8.5074 4.105 8.63517 4.515 8.75273 4.92C8.75521 4.94858 8.76364 4.97636 8.77751 5.00163C8.79138 5.0269 8.8104 5.04912 8.83338 5.06692C8.85637 5.08472 8.88284 5.09773 8.91116 5.10514C8.93949 5.11255 8.96906 5.1142 8.99806 5.11H21.7247C25.5172 5.11 29.3113 5.11 33.1072 5.11C33.3406 5.08795 33.5761 5.12176 33.7932 5.20854C34.0104 5.29532 34.2027 5.43245 34.3536 5.60812C34.5045 5.78379 34.6095 5.99272 34.6594 6.21691C34.7094 6.4411 34.7029 6.67382 34.6405 6.895C34.0885 9.68167 33.5382 12.4667 32.9896 15.25C32.7443 16.495 32.5041 17.75 32.2536 18.985C32.2021 19.2961 32.044 19.5808 31.8054 19.7925C31.5667 20.0042 31.2616 20.1302 30.9401 20.15L23.6005 21.025L16.3734 21.875C15.0241 22.03 13.6798 22.195 12.3356 22.375C12.3013 22.3791 12.2685 22.3912 12.2401 22.4104C12.2116 22.4296 12.1883 22.4551 12.1721 22.485C12.0989 22.6913 12.0458 22.9039 12.0136 23.12C11.983 23.44 12.0801 23.57 12.3918 23.69C12.8372 23.8516 13.3149 23.9098 13.7872 23.86C15.5198 23.73 17.2525 23.57 18.9852 23.445C20.7178 23.32 22.4863 23.21 24.2343 23.12C25.6858 23.045 27.1425 23.005 28.5941 22.965C29.2534 22.965 29.9127 22.965 30.5721 22.99C30.7267 22.9858 30.8805 23.0126 31.0242 23.0687C31.1678 23.1248 31.2982 23.209 31.4073 23.3162C31.5165 23.4234 31.6021 23.5513 31.6589 23.6921C31.7156 23.8328 31.7424 23.9834 31.7375 24.1346C31.7326 24.2859 31.6962 24.4345 31.6305 24.5715C31.5647 24.7084 31.471 24.8308 31.3552 24.931C31.2393 25.0312 31.1037 25.1073 30.9568 25.1544C30.8098 25.2015 30.6545 25.2187 30.5005 25.205C29.5243 25.205 28.5481 25.205 27.5769 25.205H27.0505V25.165ZM9.67273 7.93C9.67273 8.01 9.7034 8.07 9.71873 8.13C10.1378 9.5 10.557 10.87 10.9658 12.24C10.9708 12.268 10.9813 12.2947 10.9969 12.3186C11.0124 12.3426 11.0326 12.3633 11.0564 12.3795C11.0801 12.3958 11.1069 12.4073 11.1353 12.4134C11.1636 12.4195 11.1929 12.42 11.2214 12.415H16.7107V7.915L9.67273 7.93ZM18.1061 18.825H18.2747L23.7845 18.175C23.9378 18.175 23.9583 18.09 23.9583 17.96C23.9583 16.635 23.9583 15.31 23.9583 13.96C23.9583 13.89 23.9583 13.82 23.9583 13.75H18.1061V18.825ZM18.1061 12.395H23.9429V7.935H18.1061V12.395ZM31.4869 7.935H31.257C29.3556 7.935 27.4492 7.935 25.5478 7.935C25.3689 7.935 25.3178 7.985 25.3178 8.155C25.3178 9.51 25.3178 10.87 25.3178 12.225C25.3131 12.2883 25.3131 12.3518 25.3178 12.415H25.4456C27.0914 12.415 28.7423 12.415 30.3932 12.415C30.5721 12.415 30.5925 12.325 30.6181 12.195C30.8327 11.09 31.0525 9.99 31.2672 8.89C31.3592 8.58 31.4205 8.265 31.4869 7.935ZM11.4616 13.765C11.4723 13.8342 11.4877 13.9027 11.5076 13.97C12.0392 15.7267 12.5724 17.4817 13.1074 19.235C13.1534 19.39 13.2198 19.425 13.3732 19.405C14.3954 19.28 15.4176 19.155 16.4398 19.045C16.6698 19.02 16.7261 18.935 16.721 18.72C16.721 17.35 16.721 15.975 16.721 14.605V13.765H11.4616ZM30.3369 13.765C30.3046 13.7622 30.2721 13.7622 30.2398 13.765H25.4916C25.3178 13.765 25.3229 13.86 25.3229 13.98C25.3229 15.255 25.3229 16.53 25.3229 17.805C25.3182 17.8699 25.3182 17.9351 25.3229 18L29.4118 17.5C29.5498 17.5 29.5805 17.41 29.6009 17.3C29.7236 16.66 29.8514 16.02 29.9792 15.38C30.1274 14.85 30.2449 14.32 30.3369 13.775V13.765ZM14.8554 29.945C14.8554 29.3898 14.687 28.8471 14.3714 28.3856C14.0559 27.9241 13.6075 27.5646 13.083 27.3526C12.5584 27.1406 11.9814 27.0856 11.4249 27.1947C10.8684 27.3037 10.3575 27.5718 9.95693 27.9651C9.55634 28.3584 9.28406 28.8592 9.17458 29.4039C9.0651 29.9487 9.12335 30.513 9.34194 31.0254C9.56053 31.5377 9.92963 31.9751 10.4025 32.2821C10.8754 32.5891 11.4307 32.752 11.9983 32.75C12.7561 32.7447 13.4813 32.4472 14.0162 31.922C14.5512 31.3968 14.8527 30.6864 14.8554 29.945ZM31.1189 29.945C31.1179 29.3916 30.9493 28.851 30.6344 28.3913C30.3196 27.9316 29.8725 27.5735 29.3497 27.3622C28.8269 27.1509 28.2518 27.0958 27.6971 27.204C27.1423 27.3122 26.6328 27.5788 26.2328 27.9701C25.8329 28.3614 25.5604 28.8598 25.4498 29.4025C25.3392 29.9452 25.3954 30.5078 25.6114 31.0192C25.8274 31.5306 26.1935 31.968 26.6634 32.276C27.1333 32.5841 27.686 32.749 28.2516 32.75C29.009 32.7513 29.736 32.459 30.2734 31.937C30.8108 31.415 31.1149 30.7059 31.1189 29.965V29.945Z" fill="#707070"/>
</svg>
